<?xml version="1.0" encoding="utf-8"?>
<svg width="512" height="183px" style="" viewBox="0 0 512 183" data-svgdocument="" id="_BM0fv_aJ_ZZWWYek1ZRVa" class="fl-svgdocument" x="0" y="0" xmlns="http://www.w3.org/2000/svg" xmlns:xlink="http://www.w3.org/1999/xlink" xmlns:bx="https://boxy-svg.com">
  <g id="_CZsm_wCQ7c3IgxeylXQiM" transform="matrix(0.8548763496829962, 0, 0, 0.8548763496829962, -28.584275349699645, -120.26842792840556)" bx:origin="0 0">
    <path id="_nYrdhAiyt-4ci4TBfdLLz" d="M47.69,90.25c-0.069,0-0.14-0.006-0.21-0.02l-34.722-6.439c-0.624-0.115-1.036-0.715-0.921-1.34   c0.116-0.623,0.717-1.037,1.34-0.92l33.245,6.164l-1.82-22.307l-18.92-53.09c-0.214-0.598,0.099-1.256,0.697-1.469   c0.598-0.213,1.255,0.099,1.469,0.697L46.819,64.76c0.033,0.094,0.055,0.191,0.062,0.293l1.955,23.953   c0.028,0.357-0.11,0.707-0.376,0.947C48.248,90.145,47.973,90.25,47.69,90.25z" fill="#ffab4a" transform="matrix(2.3875880241394043, 0, 0, 2.3875880241394043, 24.424518585205078, 128.12120056152344)"/>
    <path id="_7-TNYczNWwjvDZVmHMsj0" d="M47.689,90.25c-0.183,0-0.367-0.043-0.54-0.135c-0.561-0.301-0.772-0.996-0.474-1.557l33.803-63.391   c0.299-0.56,0.995-0.772,1.556-0.474c0.56,0.299,0.771,0.996,0.474,1.556L48.705,89.641C48.498,90.029,48.101,90.25,47.689,90.25z" fill="#ff6b4a" transform="matrix(2.3875880241394043, 0, 0, 2.3875880241394043, 23.89333724975586, 128.6082305908203)"/>
    <path id="_HmtDiMQRhI5IEVQ9RVaWU" d="M45.737,66.295c-0.077,0-0.155-0.008-0.233-0.023l0,0c-0.001,0-0.002,0-0.002,0c-0.017-0.004-0.032-0.008-0.047-0.012l0,0   c-0.003,0-0.004,0-0.006-0.002l0,0c-0.213-0.055-0.396-0.164-0.539-0.312L10.716,31.75L6.281,55.965   c-0.114,0.625-0.714,1.037-1.338,0.924c-0.625-0.115-1.038-0.715-0.924-1.338l4.829-26.37c0.076-0.42,0.381-0.763,0.788-0.891   c0.408-0.127,0.854-0.018,1.155,0.285l34.292,34.292l9.896-42.656l-28.495-7.184c-0.526-0.132-0.888-0.614-0.868-1.156   s0.416-0.997,0.949-1.091l32.653-5.749c0.38-0.067,0.769,0.062,1.033,0.341c0.266,0.28,0.373,0.675,0.286,1.051l-2.81,12.109   l24.046,6.062c0.391,0.099,0.702,0.396,0.819,0.782c0.116,0.386,0.022,0.806-0.249,1.105L46.603,65.9   c-0.065,0.076-0.141,0.143-0.224,0.197c0,0.002-0.001,0.002-0.001,0.002c-0.001,0-0.001,0-0.002,0l-0.001,0.002   c-0.001,0-0.001,0-0.001,0c-0.017,0.012-0.032,0.021-0.049,0.031c-0.001,0-0.001,0-0.001,0c-0.001,0-0.001,0-0.002,0.002h-0.001   c-0.001,0-0.001,0-0.001,0C46.146,66.238,45.945,66.295,45.737,66.295z M57.209,20.773l-9.354,40.323l31.499-34.74L57.209,20.773z    M32.262,12.112l23.237,5.858l2.406-10.373L32.262,12.112z" fill="#ff4a4a" transform="matrix(2.3875880241394043, 0, 0, 2.3875880241394043, 23.886180877685547, 128.81785583496094)"/>
    <path id="_-g4FECiGjDeGPmN7mAvTs" d="M12.968,83.811c-0.145,0-0.287-0.027-0.419-0.078c-0.101-0.041-0.197-0.094-0.285-0.162   c-0.15-0.117-0.273-0.273-0.353-0.457c-0.02-0.047-0.037-0.096-0.05-0.143L4.046,56.078c-0.136-0.471,0.039-0.975,0.438-1.258   l51.203-36.386c0.455-0.323,1.075-0.273,1.473,0.117s0.457,1.01,0.143,1.47L16.579,79.428l28.615-15.297   c0.166-0.088,0.353-0.135,0.542-0.135h46.606L80.492,26.358L58.655,7.024c-0.475-0.421-0.52-1.147-0.098-1.623   c0.42-0.475,1.147-0.52,1.622-0.099l22.075,19.545c0.156,0.139,0.272,0.317,0.335,0.516l12.417,39.437   c0.109,0.348,0.047,0.729-0.17,1.023c-0.217,0.297-0.561,0.471-0.927,0.471H46.024L13.532,83.664   c-0.051,0.027-0.104,0.053-0.159,0.074c-0.069,0.025-0.141,0.045-0.212,0.057C13.097,83.807,13.032,83.811,12.968,83.811z    M6.482,56.221l6.912,23.785l38.356-55.953L6.482,56.221z" fill="#ff954a" transform="matrix(2.3875880241394043, 0, 0, 2.3875880241394043, 23.98843765258789, 128.7154083251953)"/>
    <path id="_lH_QpX3A2RgCO2VtGtMus" fill="#ff4a4a" transform="matrix(2.3875880241394043, 0, 0, 2.3875880241394043, 24.87227439880371, 128.0879364013672)" data-type="circle" data-cx="55.538" data-cy="19.677" data-r="4.901" d="M55.538,19.677m-4.901,0a4.901,4.901 0 1, 0 9.802,0a4.901,4.901 0 1, 0 -9.802,0"/>
    <path id="_zwePDHih4GevDIq5w3Req" fill="#ff6b4a" transform="matrix(2.3875880241394043, 0, 0, 2.3875880241394043, 25.028173446655273, 128.2785186767578)" data-type="circle" data-cx="23.472" data-cy="42.596" data-r="4.9" d="M23.472,42.596m-4.9,0a4.9,4.9 0 1, 0 9.8,0a4.9,4.9 0 1, 0 -9.8,0"/>
    <path id="__bp6clTczT-DT51RP1Js7" fill="#ff954a" transform="matrix(2.3875880241394043, 0, 0, 2.3875880241394043, 24.40011978149414, 129.35693359375)" data-type="circle" data-cx="45.736" data-cy="65.145" data-r="4.901" d="M45.736,65.145m-4.901,0a4.901,4.901 0 1, 0 9.802,0a4.901,4.901 0 1, 0 -9.802,0"/>
    <path id="_4I73MY35XrjAje_94NhqE" fill="#ffab4a" transform="matrix(2.3875880241394043, 0, 0, 2.3875880241394043, 23.846981048583984, 128.12213134765625)" data-type="circle" data-cx="12.968" data-cy="82.662" data-r="4.901" d="M12.968,82.662m-4.901,0a4.901,4.901 0 1, 0 9.802,0a4.901,4.901 0 1, 0 -9.802,0"/>
    <path id="_Em4M5ckx9HQ3l5_UxbT-2" fill="#ffab4a" transform="matrix(2.3875880241394043, 0, 0, 2.3875880241394043, 24.331098556518555, 128.38638305664062)" data-type="circle" data-cx="81.493" data-cy="25.552" data-r="4.901" d="M81.493,25.552m-4.901,0a4.901,4.901 0 1, 0 9.802,0a4.901,4.901 0 1, 0 -9.802,0"/>
    <path id="_MuuO6Z994e7NcdK4w4UM3" fill="#ff6b4a" transform="matrix(2.3875880241394043, 0, 0, 2.3875880241394043, 24.50743865966797, 129.4617462158203)" data-type="circle" data-cx="47.69" data-cy="89.1" data-r="4.9" d="M47.69,89.1m-4.9,0a4.9,4.9 0 1, 0 9.8,0a4.9,4.9 0 1, 0 -9.8,0"/>
  </g>
  <path id="_Z0YrQ9icz1cHOvm_GQPbH" fill="#000000" transform="matrix(0.5512093218405842, 0, 0, 0.5512093218405842, 96.15690470797874, 127.09898898340165)" text="ATL" text-anchor="start" font-size="100" letter-spacing="0" side="left" offset="0" dx="0" dy="0" space="preserve" font-family="Bungee" font-scale="contain" x="0" y="0" data-fl-textpath="" d="M 33-51L 33-51L 28.3-35.8L 44-35.8L 39.3-51Q 38.9-51.9  38.45-52.3Q 38-52.7  37.4-52.7L 37.4-52.7L 34.9-52.7Q 34.3-52.7  33.85-52.3Q 33.4-51.9  33-51ZM 27.3-17.6L 27.3-3.6Q 27.3-1.7  26.45-0.85Q 25.6 0  23.7 0L 23.7 0L 9 0Q 7.1 0  6.25-0.85Q 5.4-1.7  5.4-3.6L 5.4-3.6L 5.4-30Q 5.4-33  6.35-36.9Q 7.3-40.8  9.3-46L 9.3-46L 18-68.7Q 18.6-70.4  19.85-71.2Q 21.1-72  23.1-72L 23.1-72L 50-72Q 51.9-72  53.15-71.2Q 54.4-70.4  55-68.7L 55-68.7L 63.7-46Q 65.7-40.8  66.65-36.9Q 67.6-33  67.6-30L 67.6-30L 67.6-3.6Q 67.6-1.7  66.75-0.85Q 65.9 0  64 0L 64 0L 48.9 0Q 46.9 0  45.95-0.85Q 45-1.7  45-3.6L 45-3.6L 45-17.6L 27.3-17.6ZM 109.9 0L 109.9 0L 93.7 0Q 91.8 0  90.95-0.85Q 90.1-1.7  90.1-3.6L 90.1-3.6L 90.1-52.7L 75.4-52.7Q 73.5-52.7  72.65-53.55Q 71.8-54.4  71.8-56.3L 71.8-56.3L 71.8-68.4Q 71.8-70.3  72.65-71.15Q 73.5-72  75.4-72L 75.4-72L 128.2-72Q 130.1-72  130.95-71.15Q 131.8-70.3  131.8-68.4L 131.8-68.4L 131.8-56.3Q 131.8-54.4  130.95-53.55Q 130.1-52.7  128.2-52.7L 128.2-52.7L 113.5-52.7L 113.5-3.6Q 113.5-1.7  112.65-0.85Q 111.8 0  109.9 0ZM 196.00000000000003 0L 196.00000000000003 0L 145.10000000000002 0Q 143.20000000000002 0  142.35000000000002-0.85Q 141.50000000000003-1.7  141.50000000000003-3.6L 141.50000000000003-3.6L 141.50000000000003-68.4Q 141.50000000000003-70.3  142.35000000000002-71.15Q 143.20000000000002-72  145.10000000000002-72L 145.10000000000002-72L 160.60000000000002-72Q 162.50000000000003-72  163.35000000000002-71.15Q 164.20000000000002-70.3  164.20000000000002-68.4L 164.20000000000002-68.4L 164.20000000000002-18.9L 177.90000000000003-18.9L 177.90000000000003-35.1Q 177.90000000000003-37  178.75000000000003-37.85Q 179.60000000000002-38.7  181.50000000000003-38.7L 181.50000000000003-38.7L 196.00000000000003-38.7Q 197.90000000000003-38.7  198.75000000000003-37.85Q 199.60000000000002-37  199.60000000000002-35.1L 199.60000000000002-35.1L 199.60000000000002-3.6Q 199.60000000000002-1.7  198.75000000000003-0.85Q 197.90000000000003 0  196.00000000000003 0Z" xlink:href="" bx:origin="-0.926093 -2.202529"/>
  <path id="_eEteVYS_4MtFquPhnNs8m" fill="#000000" transform="matrix(0.5512093218405842, 0, 0, 0.5512093218405842, 96.55354080481358, 172.8428833318418)" text="Engineering" text-anchor="start" font-size="100" letter-spacing="0" side="left" offset="0" dx="0" dy="0" space="preserve" font-family="Bungee" font-scale="contain" x="0" y="0" data-fl-textpath="" d="M 56.9 0L 56.9 0L 10.5 0Q 8.6 0  7.75-0.85Q 6.9-1.7  6.9-3.6L 6.9-3.6L 6.9-68.4Q 6.9-70.3  7.75-71.15Q 8.6-72  10.5-72L 10.5-72L 56.9-72Q 58.8-72  59.65-71.15Q 60.5-70.3  60.5-68.4L 60.5-68.4L 60.5-56.7Q 60.5-54.8  59.65-53.95Q 58.8-53.1  56.9-53.1L 56.9-53.1L 29.3-53.1L 29.3-45.4L 48.8-45.4Q 50.7-45.4  51.55-44.55Q 52.4-43.7  52.4-41.8L 52.4-41.8L 52.4-31.1Q 52.4-29.2  51.55-28.35Q 50.7-27.5  48.8-27.5L 48.8-27.5L 29.3-27.5L 29.3-18.9L 56.9-18.9Q 58.8-18.9  59.65-18.05Q 60.5-17.2  60.5-15.3L 60.5-15.3L 60.5-3.6Q 60.5-1.7  59.65-0.85Q 58.8 0  56.9 0ZM 90.9 0L 90.9 0L 75.9 0Q 74 0  73.15-0.85Q 72.30000000000001-1.7  72.30000000000001-3.6L 72.30000000000001-3.6L 72.30000000000001-68.4Q 72.30000000000001-70.3  73.15-71.15Q 74-72  75.9-72L 75.9-72L 86.30000000000001-72Q 88.2-72  89.55000000000001-71.4Q 90.9-70.8  92.2-69.3L 92.2-69.3L 111.60000000000001-47.1L 111.60000000000001-68.4Q 111.60000000000001-70.3  112.45-71.15Q 113.30000000000001-72  115.2-72L 115.2-72L 130.2-72Q 132.10000000000002-72  132.95-71.15Q 133.8-70.3  133.8-68.4L 133.8-68.4L 133.8-3.6Q 133.8-1.7  132.95-0.85Q 132.10000000000002 0  130.2 0L 130.2 0L 115.2 0Q 113.30000000000001 0  112.45-0.85Q 111.60000000000001-1.7  111.60000000000001-3.6L 111.60000000000001-3.6L 111.60000000000001-15.9L 94.5-36.6L 94.5-3.6Q 94.5-1.7  93.65-0.85Q 92.80000000000001 0  90.9 0ZM 202.6 0L 202.6 0L 171.1 0Q 158.6 0  152.54999999999998-5Q 146.5-10  146.5-20.4L 146.5-20.4L 146.5-51.6Q 146.5-62  152.54999999999998-67Q 158.6-72  171.1-72L 171.1-72L 196.1-72Q 198-72  198.85-71.15Q 199.7-70.3  199.7-68.4L 199.7-68.4L 199.7-56.3Q 199.7-54.4  198.85-53.55Q 198-52.7  196.1-52.7L 196.1-52.7L 175.29999999999998-52.7Q 172.2-52.7  170.7-51.45Q 169.2-50.2  169.2-47.7L 169.2-47.7L 169.2-23.8Q 169.2-21.3  170.35-20.1Q 171.5-18.9  173.79999999999998-18.9L 173.79999999999998-18.9L 183.5-18.9L 183.5-34.5Q 183.5-36.4  184.35-37.25Q 185.2-38.1  187.1-38.1L 187.1-38.1L 202.6-38.1Q 204.5-38.1  205.35-37.25Q 206.2-36.4  206.2-34.5L 206.2-34.5L 206.2-3.6Q 206.2-1.7  205.35-0.85Q 204.5 0  202.6 0ZM 263 0L 220.4 0Q 218.5 0  217.65-0.85Q 216.8-1.7  216.8-3.6L 216.8-3.6L 216.8-15.5Q 216.8-17.4  217.65-18.25Q 218.5-19.1  220.4-19.1L 220.4-19.1L 230.3-19.1L 230.3-52.7L 220.4-52.7Q 218.5-52.7  217.65-53.55Q 216.8-54.4  216.8-56.3L 216.8-56.3L 216.8-68.4Q 216.8-70.3  217.65-71.15Q 218.5-72  220.4-72L 220.4-72L 263-72Q 264.9-72  265.75-71.15Q 266.6-70.3  266.6-68.4L 266.6-68.4L 266.6-56.3Q 266.6-54.4  265.75-53.55Q 264.9-52.7  263-52.7L 263-52.7L 253.3-52.7L 253.3-19.1L 263-19.1Q 264.9-19.1  265.75-18.25Q 266.6-17.4  266.6-15.5L 266.6-15.5L 266.6-3.6Q 266.6-1.7  265.75-0.85Q 264.9 0  263 0L 263 0ZM 297.5 0L 297.5 0L 282.5 0Q 280.6 0  279.75-0.85Q 278.9-1.7  278.9-3.6L 278.9-3.6L 278.9-68.4Q 278.9-70.3  279.75-71.15Q 280.6-72  282.5-72L 282.5-72L 292.9-72Q 294.8-72  296.15-71.4Q 297.5-70.8  298.8-69.3L 298.8-69.3L 318.2-47.1L 318.2-68.4Q 318.2-70.3  319.05-71.15Q 319.9-72  321.8-72L 321.8-72L 336.8-72Q 338.7-72  339.55-71.15Q 340.4-70.3  340.4-68.4L 340.4-68.4L 340.4-3.6Q 340.4-1.7  339.55-0.85Q 338.7 0  336.8 0L 336.8 0L 321.8 0Q 319.9 0  319.05-0.85Q 318.2-1.7  318.2-3.6L 318.2-3.6L 318.2-15.9L 301.1-36.6L 301.1-3.6Q 301.1-1.7  300.25-0.85Q 299.4 0  297.5 0ZM 404.2 0L 404.2 0L 357.8 0Q 355.90000000000003 0  355.05-0.85Q 354.2-1.7  354.2-3.6L 354.2-3.6L 354.2-68.4Q 354.2-70.3  355.05-71.15Q 355.90000000000003-72  357.8-72L 357.8-72L 404.2-72Q 406.1-72  406.95-71.15Q 407.8-70.3  407.8-68.4L 407.8-68.4L 407.8-56.7Q 407.8-54.8  406.95-53.95Q 406.1-53.1  404.2-53.1L 404.2-53.1L 376.6-53.1L 376.6-45.4L 396.1-45.4Q 398-45.4  398.85-44.55Q 399.7-43.7  399.7-41.8L 399.7-41.8L 399.7-31.1Q 399.7-29.2  398.85-28.35Q 398-27.5  396.1-27.5L 396.1-27.5L 376.6-27.5L 376.6-18.9L 404.2-18.9Q 406.1-18.9  406.95-18.05Q 407.8-17.2  407.8-15.3L 407.8-15.3L 407.8-3.6Q 407.8-1.7  406.95-0.85Q 406.1 0  404.2 0ZM 469.6 0L 469.6 0L 423.20000000000005 0Q 421.30000000000007 0  420.45000000000005-0.85Q 419.6-1.7  419.6-3.6L 419.6-3.6L 419.6-68.4Q 419.6-70.3  420.45000000000005-71.15Q 421.30000000000007-72  423.20000000000005-72L 423.20000000000005-72L 469.6-72Q 471.50000000000006-72  472.35-71.15Q 473.20000000000005-70.3  473.20000000000005-68.4L 473.20000000000005-68.4L 473.20000000000005-56.7Q 473.20000000000005-54.8  472.35-53.95Q 471.50000000000006-53.1  469.6-53.1L 469.6-53.1L 442.00000000000006-53.1L 442.00000000000006-45.4L 461.50000000000006-45.4Q 463.40000000000003-45.4  464.25000000000006-44.55Q 465.1-43.7  465.1-41.8L 465.1-41.8L 465.1-31.1Q 465.1-29.2  464.25000000000006-28.35Q 463.40000000000003-27.5  461.50000000000006-27.5L 461.50000000000006-27.5L 442.00000000000006-27.5L 442.00000000000006-18.9L 469.6-18.9Q 471.50000000000006-18.9  472.35-18.05Q 473.20000000000005-17.2  473.20000000000005-15.3L 473.20000000000005-15.3L 473.20000000000005-3.6Q 473.20000000000005-1.7  472.35-0.85Q 471.50000000000006 0  469.6 0ZM 515.1-54L 507.6-54L 507.6-41.2L 515.1-41.2Q 517.7-41.2  518.6-42.55Q 519.5-43.9  519.5-45.9L 519.5-45.9L 519.5-49.3Q 519.5-51.3  518.6-52.65Q 517.7-54  515.1-54L 515.1-54ZM 504 0L 504 0L 488.6 0Q 486.70000000000005 0  485.85-0.85Q 485-1.7  485-3.6L 485-3.6L 485-68.4Q 485-70.3  485.85-71.15Q 486.70000000000005-72  488.6-72L 488.6-72L 521.9-72Q 533.1-72  537.35-67.35Q 541.6-62.7  541.6-55.3L 541.6-55.3L 541.6-50.7Q 541.6-46.5  540.35-43.55Q 539.1-40.6  536-39.3L 536-39.3Q 541.4-38.7  544.75-34.9Q 548.1-31.1  548.1-24.8L 548.1-24.8L 548.1-3.6Q 548.1-1.7  547.25-0.85Q 546.4 0  544.5 0L 544.5 0L 529 0Q 527.1 0  526.25-0.85Q 525.4-1.7  525.4-3.6L 525.4-3.6L 525.4-18.9Q 525.4-21.1  524.5500000000001-22.15Q 523.7-23.2  521.6-23.2L 521.6-23.2L 507.6-23.2L 507.6-3.6Q 507.6-1.7  506.75-0.85Q 505.90000000000003 0  504 0ZM 603.9 0L 561.3 0Q 559.4 0  558.55-0.85Q 557.6999999999999-1.7  557.6999999999999-3.6L 557.6999999999999-3.6L 557.6999999999999-15.5Q 557.6999999999999-17.4  558.55-18.25Q 559.4-19.1  561.3-19.1L 561.3-19.1L 571.1999999999999-19.1L 571.1999999999999-52.7L 561.3-52.7Q 559.4-52.7  558.55-53.55Q 557.6999999999999-54.4  557.6999999999999-56.3L 557.6999999999999-56.3L 557.6999999999999-68.4Q 557.6999999999999-70.3  558.55-71.15Q 559.4-72  561.3-72L 561.3-72L 603.9-72Q 605.8-72  606.65-71.15Q 607.5-70.3  607.5-68.4L 607.5-68.4L 607.5-56.3Q 607.5-54.4  606.65-53.55Q 605.8-52.7  603.9-52.7L 603.9-52.7L 594.1999999999999-52.7L 594.1999999999999-19.1L 603.9-19.1Q 605.8-19.1  606.65-18.25Q 607.5-17.4  607.5-15.5L 607.5-15.5L 607.5-3.6Q 607.5-1.7  606.65-0.85Q 605.8 0  603.9 0L 603.9 0ZM 638.4 0L 638.4 0L 623.4 0Q 621.5 0  620.65-0.85Q 619.8-1.7  619.8-3.6L 619.8-3.6L 619.8-68.4Q 619.8-70.3  620.65-71.15Q 621.5-72  623.4-72L 623.4-72L 633.8-72Q 635.6999999999999-72  637.05-71.4Q 638.4-70.8  639.6999999999999-69.3L 639.6999999999999-69.3L 659.1-47.1L 659.1-68.4Q 659.1-70.3  659.9499999999999-71.15Q 660.8-72  662.6999999999999-72L 662.6999999999999-72L 677.6999999999999-72Q 679.6-72  680.4499999999999-71.15Q 681.3-70.3  681.3-68.4L 681.3-68.4L 681.3-3.6Q 681.3-1.7  680.4499999999999-0.85Q 679.6 0  677.6999999999999 0L 677.6999999999999 0L 662.6999999999999 0Q 660.8 0  659.9499999999999-0.85Q 659.1-1.7  659.1-3.6L 659.1-3.6L 659.1-15.9L 642-36.6L 642-3.6Q 642-1.7  641.15-0.85Q 640.3 0  638.4 0ZM 750.0999999999999 0L 750.0999999999999 0L 718.5999999999999 0Q 706.0999999999999 0  700.05-5Q 693.9999999999999-10  693.9999999999999-20.4L 693.9999999999999-20.4L 693.9999999999999-51.6Q 693.9999999999999-62  700.05-67Q 706.0999999999999-72  718.5999999999999-72L 718.5999999999999-72L 743.5999999999999-72Q 745.4999999999999-72  746.3499999999999-71.15Q 747.1999999999999-70.3  747.1999999999999-68.4L 747.1999999999999-68.4L 747.1999999999999-56.3Q 747.1999999999999-54.4  746.3499999999999-53.55Q 745.4999999999999-52.7  743.5999999999999-52.7L 743.5999999999999-52.7L 722.8-52.7Q 719.6999999999999-52.7  718.1999999999999-51.45Q 716.6999999999999-50.2  716.6999999999999-47.7L 716.6999999999999-47.7L 716.6999999999999-23.8Q 716.6999999999999-21.3  717.8499999999999-20.1Q 718.9999999999999-18.9  721.3-18.9L 721.3-18.9L 730.9999999999999-18.9L 730.9999999999999-34.5Q 730.9999999999999-36.4  731.8499999999999-37.25Q 732.6999999999999-38.1  734.5999999999999-38.1L 734.5999999999999-38.1L 750.0999999999999-38.1Q 751.9999999999999-38.1  752.8499999999999-37.25Q 753.6999999999999-36.4  753.6999999999999-34.5L 753.6999999999999-34.5L 753.6999999999999-3.6Q 753.6999999999999-1.7  752.8499999999999-0.85Q 751.9999999999999 0  750.0999999999999 0Z" xlink:href="" bx:origin="-0.243796 -3.355144"/>
</svg>